<mxfile host="app.diagrams.net" modified="2023-10-04T13:14:21.537Z" agent="Mozilla/5.0 (X11; Linux x86_64; rv:109.0) Gecko/20100101 Firefox/115.0" etag="0Oft6VqiEiEq5JsMasqA" version="22.0.2" type="device">
  <diagram name="Page-1" id="74e2e168-ea6b-b213-b513-2b3c1d86103e">
    <mxGraphModel dx="3566" dy="1012" grid="1" gridSize="10" guides="1" tooltips="1" connect="1" arrows="1" fold="1" page="1" pageScale="1" pageWidth="827" pageHeight="1169" background="none" math="0" shadow="0">
      <root>
        <mxCell id="0" />
        <mxCell id="1" parent="0" />
        <mxCell id="WbyVeOGajUIQRo5Y53d9-23" style="edgeStyle=orthogonalEdgeStyle;orthogonalLoop=1;jettySize=auto;html=1;entryX=1;entryY=0.75;entryDx=0;entryDy=0;rounded=1;" parent="1" source="uT5cAdOJGuDDNsZNP-gC-70" target="WbyVeOGajUIQRo5Y53d9-8" edge="1">
          <mxGeometry relative="1" as="geometry">
            <mxPoint x="-807.4999999999995" y="880" as="sourcePoint" />
            <mxPoint x="-1010" y="210" as="targetPoint" />
            <Array as="points">
              <mxPoint x="-925" y="225" />
            </Array>
          </mxGeometry>
        </mxCell>
        <mxCell id="WbyVeOGajUIQRo5Y53d9-24" value="&lt;div&gt;GET CAPABILITIES&lt;br&gt;&lt;br&gt;Push director address for&amp;nbsp;&lt;/div&gt;&lt;div&gt;the requested service&lt;br&gt;&lt;/div&gt;" style="edgeLabel;html=1;align=center;verticalAlign=middle;resizable=0;points=[];" parent="WbyVeOGajUIQRo5Y53d9-23" vertex="1" connectable="0">
          <mxGeometry x="-0.4968" y="-2" relative="1" as="geometry">
            <mxPoint x="-17" y="14" as="offset" />
          </mxGeometry>
        </mxCell>
        <mxCell id="WbyVeOGajUIQRo5Y53d9-25" style="edgeStyle=orthogonalEdgeStyle;rounded=1;orthogonalLoop=1;jettySize=auto;html=1;exitX=0;exitY=0.25;exitDx=0;exitDy=0;entryX=0;entryY=0.5;entryDx=0;entryDy=0;" parent="1" source="uT5cAdOJGuDDNsZNP-gC-70" target="WbyVeOGajUIQRo5Y53d9-12" edge="1">
          <mxGeometry relative="1" as="geometry">
            <Array as="points">
              <mxPoint x="-1530" y="913" />
              <mxPoint x="-1530" y="450" />
            </Array>
          </mxGeometry>
        </mxCell>
        <mxCell id="WbyVeOGajUIQRo5Y53d9-26" value="POST SUBSCRIBE&lt;br&gt;&lt;br&gt;User Authentication&lt;br&gt;App Authentication&lt;br&gt;Method (FCM, UnifiedPush, Websocket)&lt;br&gt;Method Data&lt;br&gt;" style="edgeLabel;html=1;align=center;verticalAlign=middle;resizable=0;points=[];" parent="WbyVeOGajUIQRo5Y53d9-25" vertex="1" connectable="0">
          <mxGeometry x="0.2036" relative="1" as="geometry">
            <mxPoint as="offset" />
          </mxGeometry>
        </mxCell>
        <mxCell id="uT5cAdOJGuDDNsZNP-gC-70" value="" style="rounded=1;whiteSpace=wrap;html=1;fillColor=#d5e8d4;strokeColor=#82b366;" parent="1" vertex="1">
          <mxGeometry x="-1455" y="880" width="590" height="130" as="geometry" />
        </mxCell>
        <mxCell id="uT5cAdOJGuDDNsZNP-gC-71" style="edgeStyle=orthogonalEdgeStyle;orthogonalLoop=1;jettySize=auto;html=1;exitX=0.5;exitY=1;exitDx=0;exitDy=0;curved=1;" parent="1" source="WbyVeOGajUIQRo5Y53d9-11" target="WbyVeOGajUIQRo5Y53d9-15" edge="1">
          <mxGeometry relative="1" as="geometry" />
        </mxCell>
        <mxCell id="uT5cAdOJGuDDNsZNP-gC-73" style="edgeStyle=orthogonalEdgeStyle;orthogonalLoop=1;jettySize=auto;html=1;exitX=0.5;exitY=1;exitDx=0;exitDy=0;curved=1;" parent="1" source="WbyVeOGajUIQRo5Y53d9-10" target="uT5cAdOJGuDDNsZNP-gC-78" edge="1">
          <mxGeometry relative="1" as="geometry">
            <mxPoint x="-665" y="620" as="sourcePoint" />
            <Array as="points">
              <mxPoint x="-1030" y="670" />
              <mxPoint x="-1100" y="670" />
            </Array>
          </mxGeometry>
        </mxCell>
        <mxCell id="uT5cAdOJGuDDNsZNP-gC-74" value="websocket" style="edgeLabel;html=1;align=center;verticalAlign=middle;resizable=0;points=[];" parent="uT5cAdOJGuDDNsZNP-gC-73" vertex="1" connectable="0">
          <mxGeometry x="-0.0873" y="3" relative="1" as="geometry">
            <mxPoint x="7" y="28" as="offset" />
          </mxGeometry>
        </mxCell>
        <mxCell id="uT5cAdOJGuDDNsZNP-gC-75" style="edgeStyle=orthogonalEdgeStyle;orthogonalLoop=1;jettySize=auto;html=1;curved=1;entryX=0.25;entryY=0;entryDx=0;entryDy=0;exitX=0.5;exitY=1;exitDx=0;exitDy=0;" parent="1" source="WbyVeOGajUIQRo5Y53d9-10" target="uT5cAdOJGuDDNsZNP-gC-83" edge="1">
          <mxGeometry relative="1" as="geometry">
            <mxPoint x="-630" y="600" as="sourcePoint" />
            <Array as="points">
              <mxPoint x="-1030" y="810" />
              <mxPoint x="-970" y="810" />
            </Array>
          </mxGeometry>
        </mxCell>
        <mxCell id="uT5cAdOJGuDDNsZNP-gC-76" value="websocket" style="edgeLabel;html=1;align=center;verticalAlign=middle;resizable=0;points=[];" parent="uT5cAdOJGuDDNsZNP-gC-75" vertex="1" connectable="0">
          <mxGeometry x="-0.0234" y="1" relative="1" as="geometry">
            <mxPoint x="14" y="-36" as="offset" />
          </mxGeometry>
        </mxCell>
        <mxCell id="uT5cAdOJGuDDNsZNP-gC-78" value="&lt;div&gt;WebDAV&amp;nbsp;&lt;/div&gt;&lt;div&gt;FileManager&lt;/div&gt;" style="rounded=1;whiteSpace=wrap;html=1;" parent="1" vertex="1">
          <mxGeometry x="-1130" y="930" width="120" height="60" as="geometry" />
        </mxCell>
        <mxCell id="uT5cAdOJGuDDNsZNP-gC-83" value="&lt;div&gt;App in&amp;nbsp;&lt;/div&gt;&lt;div&gt;Web Browser&lt;/div&gt;" style="rounded=1;whiteSpace=wrap;html=1;" parent="1" vertex="1">
          <mxGeometry x="-1000" y="930" width="120" height="60" as="geometry" />
        </mxCell>
        <mxCell id="WbyVeOGajUIQRo5Y53d9-16" style="edgeStyle=orthogonalEdgeStyle;orthogonalLoop=1;jettySize=auto;html=1;exitX=0.5;exitY=1;exitDx=0;exitDy=0;entryX=0.5;entryY=0;entryDx=0;entryDy=0;curved=1;" parent="1" source="WbyVeOGajUIQRo5Y53d9-9" target="WbyVeOGajUIQRo5Y53d9-13" edge="1">
          <mxGeometry relative="1" as="geometry" />
        </mxCell>
        <mxCell id="WbyVeOGajUIQRo5Y53d9-1" value="" style="rounded=1;whiteSpace=wrap;html=1;" parent="1" vertex="1">
          <mxGeometry x="-1410" y="300" width="460" height="300" as="geometry" />
        </mxCell>
        <mxCell id="WbyVeOGajUIQRo5Y53d9-6" style="edgeStyle=orthogonalEdgeStyle;rounded=0;orthogonalLoop=1;jettySize=auto;html=1;exitX=0.5;exitY=1;exitDx=0;exitDy=0;entryX=0.5;entryY=0;entryDx=0;entryDy=0;" parent="1" source="WbyVeOGajUIQRo5Y53d9-8" target="WbyVeOGajUIQRo5Y53d9-46" edge="1">
          <mxGeometry relative="1" as="geometry">
            <mxPoint x="-1180" y="320" as="targetPoint" />
          </mxGeometry>
        </mxCell>
        <mxCell id="WbyVeOGajUIQRo5Y53d9-7" value="NOTIFY CONTENT CHANGED" style="edgeLabel;html=1;align=center;verticalAlign=middle;resizable=0;points=[];" parent="WbyVeOGajUIQRo5Y53d9-6" vertex="1" connectable="0">
          <mxGeometry x="-0.0544" y="1" relative="1" as="geometry">
            <mxPoint x="-1" y="-12" as="offset" />
          </mxGeometry>
        </mxCell>
        <mxCell id="WbyVeOGajUIQRo5Y53d9-8" value="&lt;div&gt;Application&amp;nbsp;&lt;/div&gt;&lt;div&gt;Server&lt;/div&gt;" style="rounded=1;whiteSpace=wrap;html=1;" parent="1" vertex="1">
          <mxGeometry x="-1240" y="180" width="120" height="60" as="geometry" />
        </mxCell>
        <mxCell id="WbyVeOGajUIQRo5Y53d9-9" value="&lt;div&gt;Unified Push&lt;/div&gt;&lt;div&gt;Module&lt;/div&gt;" style="rounded=1;whiteSpace=wrap;html=1;" parent="1" vertex="1">
          <mxGeometry x="-1240" y="550" width="120" height="60" as="geometry" />
        </mxCell>
        <mxCell id="WbyVeOGajUIQRo5Y53d9-10" value="&lt;div&gt;Websockets&lt;/div&gt;&lt;div&gt;Module&lt;/div&gt;" style="rounded=1;whiteSpace=wrap;html=1;" parent="1" vertex="1">
          <mxGeometry x="-1090" y="550" width="120" height="60" as="geometry" />
        </mxCell>
        <mxCell id="WbyVeOGajUIQRo5Y53d9-11" value="&lt;div&gt;FCM Backend&lt;/div&gt;&lt;div&gt;Module&lt;/div&gt;" style="rounded=1;whiteSpace=wrap;html=1;" parent="1" vertex="1">
          <mxGeometry x="-1380" y="550" width="120" height="60" as="geometry" />
        </mxCell>
        <mxCell id="WbyVeOGajUIQRo5Y53d9-12" value="&lt;div&gt;Subscription&lt;/div&gt;&lt;div&gt;API&lt;br&gt;&lt;/div&gt;" style="rounded=1;whiteSpace=wrap;html=1;" parent="1" vertex="1">
          <mxGeometry x="-1470" y="420" width="120" height="60" as="geometry" />
        </mxCell>
        <mxCell id="WbyVeOGajUIQRo5Y53d9-13" value="&lt;div&gt;Unified Push&lt;/div&gt;&lt;div&gt;endpoints&lt;br&gt;&lt;/div&gt;" style="rounded=1;whiteSpace=wrap;html=1;fillColor=#dae8fc;strokeColor=#6c8ebf;" parent="1" vertex="1">
          <mxGeometry x="-1270" y="670" width="120" height="60" as="geometry" />
        </mxCell>
        <mxCell id="WbyVeOGajUIQRo5Y53d9-18" style="edgeStyle=orthogonalEdgeStyle;rounded=0;orthogonalLoop=1;jettySize=auto;html=1;exitX=0.5;exitY=1;exitDx=0;exitDy=0;entryX=0.5;entryY=0;entryDx=0;entryDy=0;" parent="1" source="WbyVeOGajUIQRo5Y53d9-15" target="WbyVeOGajUIQRo5Y53d9-17" edge="1">
          <mxGeometry relative="1" as="geometry" />
        </mxCell>
        <mxCell id="WbyVeOGajUIQRo5Y53d9-38" value="FCM Application Key + &lt;br&gt;collection to be synced" style="edgeLabel;html=1;align=center;verticalAlign=middle;resizable=0;points=[];" parent="WbyVeOGajUIQRo5Y53d9-18" vertex="1" connectable="0">
          <mxGeometry x="-0.0753" relative="1" as="geometry">
            <mxPoint as="offset" />
          </mxGeometry>
        </mxCell>
        <mxCell id="WbyVeOGajUIQRo5Y53d9-15" value="App Client FCM&lt;br&gt;Redirectors" style="rounded=1;whiteSpace=wrap;html=1;fillColor=#ffe6cc;strokeColor=#d79b00;" parent="1" vertex="1">
          <mxGeometry x="-1440" y="670" width="120" height="60" as="geometry" />
        </mxCell>
        <mxCell id="WbyVeOGajUIQRo5Y53d9-17" value="FCM" style="rounded=1;whiteSpace=wrap;html=1;" parent="1" vertex="1">
          <mxGeometry x="-1440" y="800" width="120" height="60" as="geometry" />
        </mxCell>
        <mxCell id="WbyVeOGajUIQRo5Y53d9-20" value="&lt;font style=&quot;font-size: 24px;&quot;&gt;Push Clients&lt;/font&gt;" style="text;html=1;strokeColor=none;fillColor=none;align=center;verticalAlign=middle;whiteSpace=wrap;rounded=0;" parent="1" vertex="1">
          <mxGeometry x="-1410" y="890" width="220" height="30" as="geometry" />
        </mxCell>
        <mxCell id="WbyVeOGajUIQRo5Y53d9-28" style="edgeStyle=orthogonalEdgeStyle;rounded=0;orthogonalLoop=1;jettySize=auto;html=1;exitX=0;exitY=0.5;exitDx=0;exitDy=0;entryX=1;entryY=0.5;entryDx=0;entryDy=0;" parent="1" source="uT5cAdOJGuDDNsZNP-gC-79" target="uT5cAdOJGuDDNsZNP-gC-88" edge="1">
          <mxGeometry relative="1" as="geometry" />
        </mxCell>
        <mxCell id="uT5cAdOJGuDDNsZNP-gC-79" value="UnifiedPush&lt;br&gt;Distributor App" style="rounded=1;whiteSpace=wrap;html=1;fillColor=#dae8fc;strokeColor=#6c8ebf;" parent="1" vertex="1">
          <mxGeometry x="-1270" y="930" width="120" height="60" as="geometry" />
        </mxCell>
        <mxCell id="uT5cAdOJGuDDNsZNP-gC-88" value="&lt;div&gt;DAVx5 /&amp;nbsp;&lt;/div&gt;&lt;div&gt;other clients&lt;/div&gt;" style="rounded=1;whiteSpace=wrap;html=1;fillColor=#ffe6cc;strokeColor=#d79b00;" parent="1" vertex="1">
          <mxGeometry x="-1440" y="930" width="120" height="60" as="geometry" />
        </mxCell>
        <mxCell id="uT5cAdOJGuDDNsZNP-gC-86" style="edgeStyle=orthogonalEdgeStyle;orthogonalLoop=1;jettySize=auto;html=1;exitX=0.5;exitY=1;exitDx=0;exitDy=0;curved=1;" parent="1" source="WbyVeOGajUIQRo5Y53d9-13" target="uT5cAdOJGuDDNsZNP-gC-79" edge="1">
          <mxGeometry relative="1" as="geometry">
            <mxPoint x="-1300" y="780" as="sourcePoint" />
          </mxGeometry>
        </mxCell>
        <mxCell id="WbyVeOGajUIQRo5Y53d9-19" style="edgeStyle=orthogonalEdgeStyle;orthogonalLoop=1;jettySize=auto;html=1;exitX=0.5;exitY=1;exitDx=0;exitDy=0;entryX=0.5;entryY=0;entryDx=0;entryDy=0;curved=1;" parent="1" source="WbyVeOGajUIQRo5Y53d9-17" target="uT5cAdOJGuDDNsZNP-gC-88" edge="1">
          <mxGeometry relative="1" as="geometry" />
        </mxCell>
        <mxCell id="WbyVeOGajUIQRo5Y53d9-31" value="&lt;div&gt;&lt;font style=&quot;font-size: 24px;&quot;&gt;Push&amp;nbsp;&lt;/font&gt;&lt;/div&gt;&lt;div&gt;&lt;font style=&quot;font-size: 24px;&quot;&gt;Director&lt;br&gt;&lt;/font&gt;&lt;/div&gt;" style="text;html=1;strokeColor=none;fillColor=none;align=center;verticalAlign=middle;whiteSpace=wrap;rounded=0;" parent="1" vertex="1">
          <mxGeometry x="-1400" y="320" width="150" height="70" as="geometry" />
        </mxCell>
        <mxCell id="WbyVeOGajUIQRo5Y53d9-33" value="&lt;p&gt;Client Application (eg DAVx5) must provide its own FCM redirector.&lt;br&gt;&lt;/p&gt;" style="text;html=1;strokeColor=none;fillColor=none;spacing=5;spacingTop=-20;whiteSpace=wrap;overflow=hidden;rounded=0;" parent="1" vertex="1">
          <mxGeometry x="-1600" y="300" width="190" height="60" as="geometry" />
        </mxCell>
        <mxCell id="WbyVeOGajUIQRo5Y53d9-34" value="" style="ellipse;whiteSpace=wrap;html=1;aspect=fixed;fillColor=#ffe6cc;strokeColor=#d79b00;" parent="1" vertex="1">
          <mxGeometry x="-1640" y="300" width="30" height="30" as="geometry" />
        </mxCell>
        <mxCell id="WbyVeOGajUIQRo5Y53d9-35" value="" style="ellipse;whiteSpace=wrap;html=1;aspect=fixed;fillColor=#dae8fc;strokeColor=#6c8ebf;" parent="1" vertex="1">
          <mxGeometry x="-1640" y="380" width="30" height="30" as="geometry" />
        </mxCell>
        <mxCell id="WbyVeOGajUIQRo5Y53d9-36" value="UnifiedPush distributor App has its own UnifiedPush user chosen server" style="text;html=1;strokeColor=none;fillColor=none;spacing=5;spacingTop=-20;whiteSpace=wrap;overflow=hidden;rounded=0;" parent="1" vertex="1">
          <mxGeometry x="-1600" y="390" width="190" height="40" as="geometry" />
        </mxCell>
        <mxCell id="WbyVeOGajUIQRo5Y53d9-37" value="&lt;h1&gt;Push Director&lt;br&gt;&lt;/h1&gt;&lt;p&gt;Must be known to the Application Server by hostname and can be a public instance or self-hosted.&lt;br&gt;&lt;/p&gt;" style="text;html=1;strokeColor=none;fillColor=none;spacing=5;spacingTop=-20;whiteSpace=wrap;overflow=hidden;rounded=0;" parent="1" vertex="1">
          <mxGeometry x="-1600" y="180" width="190" height="100" as="geometry" />
        </mxCell>
        <mxCell id="WbyVeOGajUIQRo5Y53d9-49" style="edgeStyle=orthogonalEdgeStyle;rounded=0;orthogonalLoop=1;jettySize=auto;html=1;exitX=0.5;exitY=1;exitDx=0;exitDy=0;entryX=0.5;entryY=0;entryDx=0;entryDy=0;" parent="1" source="WbyVeOGajUIQRo5Y53d9-46" target="WbyVeOGajUIQRo5Y53d9-9" edge="1">
          <mxGeometry relative="1" as="geometry" />
        </mxCell>
        <mxCell id="WbyVeOGajUIQRo5Y53d9-50" style="edgeStyle=orthogonalEdgeStyle;orthogonalLoop=1;jettySize=auto;html=1;exitX=1;exitY=0.5;exitDx=0;exitDy=0;entryX=0.5;entryY=0;entryDx=0;entryDy=0;curved=1;" parent="1" source="WbyVeOGajUIQRo5Y53d9-46" target="WbyVeOGajUIQRo5Y53d9-10" edge="1">
          <mxGeometry relative="1" as="geometry" />
        </mxCell>
        <mxCell id="WbyVeOGajUIQRo5Y53d9-51" style="edgeStyle=orthogonalEdgeStyle;orthogonalLoop=1;jettySize=auto;html=1;exitX=0;exitY=0.5;exitDx=0;exitDy=0;curved=1;" parent="1" source="WbyVeOGajUIQRo5Y53d9-46" target="WbyVeOGajUIQRo5Y53d9-11" edge="1">
          <mxGeometry relative="1" as="geometry" />
        </mxCell>
        <mxCell id="WbyVeOGajUIQRo5Y53d9-46" value="&lt;div&gt;Distribute&lt;/div&gt;&lt;div&gt;to module if there&amp;nbsp;&lt;/div&gt;&lt;div&gt;is 1+ devices&amp;nbsp;&lt;/div&gt;&lt;div&gt;registered&lt;/div&gt;" style="rhombus;whiteSpace=wrap;html=1;" parent="1" vertex="1">
          <mxGeometry x="-1245" y="345" width="130" height="130" as="geometry" />
        </mxCell>
        <mxCell id="WbyVeOGajUIQRo5Y53d9-106" value="App Client FCM&lt;br&gt;Redirectors" style="rounded=1;whiteSpace=wrap;html=1;fillColor=#ffe6cc;strokeColor=#d79b00;" parent="1" vertex="1">
          <mxGeometry x="-1430" y="680" width="120" height="60" as="geometry" />
        </mxCell>
        <mxCell id="WbyVeOGajUIQRo5Y53d9-110" value="&lt;div&gt;Unified Push&lt;/div&gt;&lt;div&gt;endpoints&lt;br&gt;&lt;/div&gt;" style="rounded=1;whiteSpace=wrap;html=1;fillColor=#dae8fc;strokeColor=#6c8ebf;" parent="1" vertex="1">
          <mxGeometry x="-1260" y="680" width="120" height="60" as="geometry" />
        </mxCell>
        <mxCell id="WbyVeOGajUIQRo5Y53d9-111" style="edgeStyle=orthogonalEdgeStyle;orthogonalLoop=1;jettySize=auto;html=1;exitX=0.5;exitY=1;exitDx=0;exitDy=0;entryX=0.75;entryY=0;entryDx=0;entryDy=0;curved=1;" parent="1" source="WbyVeOGajUIQRo5Y53d9-9" target="WbyVeOGajUIQRo5Y53d9-110" edge="1">
          <mxGeometry relative="1" as="geometry" />
        </mxCell>
        <mxCell id="WbyVeOGajUIQRo5Y53d9-135" value="&lt;h1&gt;&lt;font style=&quot;font-size: 72px;&quot;&gt;Overview&lt;/font&gt;&lt;/h1&gt;" style="text;html=1;strokeColor=none;fillColor=none;align=left;verticalAlign=middle;whiteSpace=wrap;rounded=0;" parent="1" vertex="1">
          <mxGeometry x="-1625" y="70" width="410" height="70" as="geometry" />
        </mxCell>
        <mxCell id="qCc5ri5-h06IeiWVldXO-1" style="edgeStyle=orthogonalEdgeStyle;orthogonalLoop=1;jettySize=auto;html=1;entryX=1;entryY=0.25;entryDx=0;entryDy=0;rounded=1;exitX=0.955;exitY=-0.01;exitDx=0;exitDy=0;endArrow=classic;endFill=1;startArrow=classic;startFill=1;dashed=1;dashPattern=12 12;strokeColor=#6B6B6B;strokeWidth=1;exitPerimeter=0;endSize=8;startSize=8;" edge="1" parent="1" source="uT5cAdOJGuDDNsZNP-gC-70" target="WbyVeOGajUIQRo5Y53d9-8">
          <mxGeometry relative="1" as="geometry">
            <mxPoint x="-804" y="835" as="sourcePoint" />
            <mxPoint x="-970" y="140" as="targetPoint" />
            <Array as="points">
              <mxPoint x="-891" y="810" />
              <mxPoint x="-865" y="810" />
              <mxPoint x="-865" y="195" />
            </Array>
          </mxGeometry>
        </mxCell>
        <mxCell id="qCc5ri5-h06IeiWVldXO-2" value="&lt;div&gt;Proprietary&lt;br&gt;Push protocol&lt;br&gt;&lt;/div&gt;" style="edgeLabel;html=1;align=center;verticalAlign=middle;resizable=0;points=[];" vertex="1" connectable="0" parent="qCc5ri5-h06IeiWVldXO-1">
          <mxGeometry x="-0.4968" y="-2" relative="1" as="geometry">
            <mxPoint x="-7" y="-147" as="offset" />
          </mxGeometry>
        </mxCell>
      </root>
    </mxGraphModel>
  </diagram>
</mxfile>
